<?xml version="1.0" encoding="utf-8"?>
<svg version="1.1" xmlns:xlink="http://www.w3.org/1999/xlink" width="376px" height="61px" xmlns="http://www.w3.org/2000/svg">
  <defs>
    <filter x="21px" y="289px" width="376px" height="61px" filterUnits="userSpaceOnUse" id="filter15">
      <feOffset dx="0" dy="0" in="SourceAlpha" result="shadowOffsetInner" />
      <feGaussianBlur stdDeviation="1.5" in="shadowOffsetInner" result="shadowGaussian" />
      <feComposite in2="shadowGaussian" operator="atop" in="SourceAlpha" result="shadowComposite" />
      <feColorMatrix type="matrix" values="0 0 0 0 0  0 0 0 0 0.474509803921569  0 0 0 0 0.996078431372549  0 0 0 0.8 0  " in="shadowComposite" />
    </filter>
    <g id="widget16">
      <path d="M 24.5 295  A 2.5 2.5 0 0 1 27 292.5 L 391 292.5  A 2.5 2.5 0 0 1 393.5 295 L 393.5 344  A 2.5 2.5 0 0 1 391 346.5 L 27 346.5  A 2.5 2.5 0 0 1 24.5 344 L 24.5 295  Z " fill-rule="nonzero" fill="#ffffff" stroke="none" />
      <path d="M 24.5 295  A 2.5 2.5 0 0 1 27 292.5 L 391 292.5  A 2.5 2.5 0 0 1 393.5 295 L 393.5 344  A 2.5 2.5 0 0 1 391 346.5 L 27 346.5  A 2.5 2.5 0 0 1 24.5 344 L 24.5 295  Z " stroke-width="1" stroke="#0079fe" fill="none" />
    </g>
  </defs>
  <g transform="matrix(1 0 0 1 -21 -289 )">
    <use xlink:href="#widget16" filter="url(#filter15)" />
    <use xlink:href="#widget16" />
  </g>
</svg>