<?xml version="1.0" encoding="utf-8"?>
<svg version="1.1" xmlns:xlink="http://www.w3.org/1999/xlink" width="370px" height="55px" xmlns="http://www.w3.org/2000/svg">
  <g transform="matrix(1 0 0 1 -24 -292 )">
    <path d="M 25 295  A 2 2 0 0 1 27 293 L 391 293  A 2 2 0 0 1 393 295 L 393 344  A 2 2 0 0 1 391 346 L 27 346  A 2 2 0 0 1 25 344 L 25 295  Z " fill-rule="nonzero" fill="#ffffff" stroke="none" />
    <path d="M 24.5 295  A 2.5 2.5 0 0 1 27 292.5 L 391 292.5  A 2.5 2.5 0 0 1 393.5 295 L 393.5 344  A 2.5 2.5 0 0 1 391 346.5 L 27 346.5  A 2.5 2.5 0 0 1 24.5 344 L 24.5 295  Z " stroke-width="1" stroke="#cccccc" fill="none" stroke-opacity="0.698039215686274" />
  </g>
</svg>