<?xml version="1.0" encoding="utf-8"?>
<svg version="1.1" xmlns:xlink="http://www.w3.org/1999/xlink" width="110px" height="40px" xmlns="http://www.w3.org/2000/svg">
  <g transform="matrix(1 0 0 1 -102 -82 )">
    <path d="M 117.866563146 83  C 117.866563146 83  114.569776010752 83.5994158427723  114.569776010752 83.5994158427723  C 114.569776010752 83.5994158427723  103.112808516629 102  103.112808516629 102  C 103.112808516629 102  114.569776010752 120.400584157228  114.569776010752 120.400584157228  C 114.569776010752 120.400584157228  117.866563145999 121  117.866563145999 121  C 117.866563145999 121  201 121  201 121  C 206.6 121  211 116.6  211 111  C 211 111  211 93  211 93  C 211 87.4  206.6 83  201 83  C 201 83  117.866563146 83  117.866563146 83  Z " fill-rule="nonzero" fill="#333333" stroke="none" fill-opacity="0.8" />
  </g>
</svg>