<?xml version="1.0" encoding="utf-8"?>
<svg version="1.1" xmlns:xlink="http://www.w3.org/1999/xlink" width="200px" height="30px" xmlns="http://www.w3.org/2000/svg">
  <g transform="matrix(1 0 0 1 0 -10 )">
    <path d="M 1 25  A 14 14 0 0 1 15 11 L 185 11  A 14 14 0 0 1 199 25 A 14 14 0 0 1 185 39 L 15 39  A 14 14 0 0 1 1 25 Z " fill-rule="nonzero" fill="#ffffff" stroke="none" fill-opacity="0" />
    <path d="M 0.5 25  A 14.5 14.5 0 0 1 15 10.5 L 185 10.5  A 14.5 14.5 0 0 1 199.5 25 A 14.5 14.5 0 0 1 185 39.5 L 15 39.5  A 14.5 14.5 0 0 1 0.5 25 Z " stroke-width="1" stroke="#f2f2f2" fill="none" stroke-opacity="0.8" />
  </g>
</svg>