<?xml version="1.0" encoding="utf-8"?>
<svg version="1.1" xmlns:xlink="http://www.w3.org/1999/xlink" width="15px" height="15px" xmlns="http://www.w3.org/2000/svg">
  <g transform="matrix(1 0 0 1 -86 -697 )">
    <path d="M 93.5 700.5  C 95.74 700.5  97.5 702.26  97.5 704.5  C 97.5 706.74  95.74 708.5  93.5 708.5  C 91.26 708.5  89.5 706.74  89.5 704.5  C 89.5 702.26  91.26 700.5  93.5 700.5  Z " fill-rule="nonzero" fill="#0079fe" stroke="none" />
    <path d="M 93.5 699  C 96.58 699  99 701.42  99 704.5  C 99 707.58  96.58 710  93.5 710  C 90.42 710  88 707.58  88 704.5  C 88 701.42  90.42 699  93.5 699  Z " stroke-width="4" stroke="#0079fe" fill="none" stroke-opacity="0.298039215686275" />
  </g>
</svg>