<?xml version="1.0" encoding="utf-8"?>
<svg version="1.1" xmlns:xlink="http://www.w3.org/1999/xlink" width="360px" height="65px" xmlns="http://www.w3.org/2000/svg">
  <defs>
    <filter x="20px" y="236px" width="360px" height="65px" filterUnits="userSpaceOnUse" id="filter13">
      <feOffset dx="0" dy="0" in="SourceAlpha" result="shadowOffsetInner" />
      <feGaussianBlur stdDeviation="2.5" in="shadowOffsetInner" result="shadowGaussian" />
      <feComposite in2="shadowGaussian" operator="atop" in="SourceAlpha" result="shadowComposite" />
      <feColorMatrix type="matrix" values="0 0 0 0 1  0 0 0 0 1  0 0 0 0 1  0 0 0 0.8 0  " in="shadowComposite" />
    </filter>
    <g id="widget14">
      <path d="M 25.5 244  A 2.5 2.5 0 0 1 28 241.5 L 372 241.5  A 2.5 2.5 0 0 1 374.5 244 L 374.5 293  A 2.5 2.5 0 0 1 372 295.5 L 28 295.5  A 2.5 2.5 0 0 1 25.5 293 L 25.5 244  Z " fill-rule="nonzero" fill="#ffffff" stroke="none" fill-opacity="0" />
      <path d="M 25.5 244  A 2.5 2.5 0 0 1 28 241.5 L 372 241.5  A 2.5 2.5 0 0 1 374.5 244 L 374.5 293  A 2.5 2.5 0 0 1 372 295.5 L 28 295.5  A 2.5 2.5 0 0 1 25.5 293 L 25.5 244  Z " stroke-width="1" stroke="#ffffff" fill="none" />
    </g>
  </defs>
  <g transform="matrix(1 0 0 1 -20 -236 )">
    <use xlink:href="#widget14" filter="url(#filter13)" />
    <use xlink:href="#widget14" />
  </g>
</svg>